Coordinates
version=1
nRows=17
nColumns=24
inDegrees=yes

Units are S.I. units (second, meters, Newtons, ...)
Angles are in degrees.

endheader
time	pelvis_tilt	pelvis_list	pelvis_rotation	pelvis_tx	pelvis_ty	pelvis_tz	hip_flexion_r	hip_adduction_r	hip_rotation_r	knee_angle_r	ankle_angle_r	subtalar_angle_r	mtp_angle_r	hip_flexion_l	hip_adduction_l	hip_rotation_l	knee_angle_l	ankle_angle_l	subtalar_angle_l	mtp_angle_l	lumbar_extension	lumbar_bending	lumbar_rotation
     24.26500000	     -8.25095942	     -2.04933572	     10.48973180	     -1.81045783	     -0.01920672	     -0.32896276	     31.70879177	     -2.36557516	    -10.51497785	    -12.62883846	     -2.74125066	      7.09856166	     14.88786154	     -5.18091543	     -1.06590047	     14.99124587	    -16.18690624	      5.72833490	      5.23675697	     17.68832466	      4.07080013	     -1.16485911	    -10.37944353
     24.27000000	     -8.41090277	     -2.12740093	     10.49349917	     -1.80372525	     -0.02008818	     -0.32834040	     31.84432277	     -2.29409078	    -10.77804301	    -13.31343006	     -3.01535203	      7.28725435	     15.12387848	     -5.10208639	     -1.24224346	     14.66998926	    -16.76504237	      5.52716111	      5.99587178	     17.98468196	      4.49738994	     -1.06753496	    -10.32653029
     24.27500000	     -8.53305084	     -2.18352626	     10.47488936	     -1.79707706	     -0.02087005	     -0.32756742	     31.92704760	     -2.19637447	    -10.81503792	    -13.90301077	     -3.61017441	      7.12599937	     15.77434720	     -5.03346275	     -1.42173236	     14.23614280	    -17.34469431	      5.11519104	      6.78990779	     18.84312167	      4.85627740	     -0.99743340	    -10.23818938
     24.28000000	     -8.64375636	     -2.36461923	     10.39265126	     -1.79024649	     -0.02155074	     -0.32677895	     31.98630361	     -1.94082647	    -10.87327137	    -14.40090191	     -4.31833987	      6.96834809	     16.47413587	     -4.97537692	     -1.73416007	     13.76515136	    -17.90302946	      4.60228424	      7.46974676	     19.79804974	      5.26110053	     -0.77541177	    -10.11825841
     24.28500000	     -8.72908468	     -2.59104714	     10.37763873	     -1.78356313	     -0.02212945	     -0.32607597	     32.03934187	     -1.67825190	    -10.98557893	    -14.93110032	     -4.79770731	      6.95997898	     16.68964528	     -4.84665651	     -2.09668990	     13.31849093	    -18.62343407	      4.24887991	      8.35887190	     20.30233086	      5.61979664	     -0.49770152	    -10.04458385
     24.29000000	     -8.85597867	     -2.81441205	     10.24709580	     -1.77684972	     -0.02264925	     -0.32509981	     32.13176119	     -1.30620387	    -10.70322098	    -15.36455209	     -5.62520612	      6.42159267	     17.28055329	     -4.67735063	     -2.46661186	     12.69571341	    -19.27999652	      3.49902844	      9.08335603	     21.65445266	      6.02500465	     -0.23625811	     -9.83409755
     24.29500000	     -8.94808835	     -3.13895397	     10.19663646	     -1.77010851	     -0.02303430	     -0.32429305	     32.20331120	     -0.89628757	    -10.67341814	    -15.85796947	     -6.05177034	      6.29156017	     17.39294816	     -4.45633151	     -2.95271268	     12.11374263	    -20.09988666	      3.01561605	     10.10422198	     22.17400912	      6.42219912	      0.13827194	     -9.72327940
     24.30000000	     -9.06032443	     -3.38285463	     10.01572392	     -1.76351533	     -0.02331839	     -0.32317910	     32.30886550	     -0.41886450	    -10.08424377	    -16.31944952	     -6.82475749	      5.46317148	     17.57682109	     -4.21594875	     -3.36639981	     11.36069785	    -20.85922413	      2.07087615	     10.94383714	     23.64397699	      6.78845878	      0.42779274	     -9.53078390
     24.30500000	     -9.14290569	     -3.74160137	      9.90535950	     -1.75686715	     -0.02351621	     -0.32229089	     32.39485730	      0.10712379	     -9.74587192	    -16.84041927	     -7.22052712	      5.07783089	     17.57003663	     -3.90975900	     -3.90857455	     10.64563569	    -21.80265658	      1.40724055	     12.08550957	     24.35199516	      7.15952781	      0.86097467	     -9.40531698
     24.31000000	     -9.23824482	     -4.06626350	      9.72972006	     -1.75022356	     -0.02363967	     -0.32117184	     32.48947750	      0.70196622	     -9.05739937	    -17.35631711	     -7.70042895	      4.21344613	     17.37436206	     -3.57160560	     -4.43554087	      9.82130546	    -22.75693015	      0.49650378	     13.16065512	     25.32462445	      7.52995758	      1.23670145	     -9.21639981
     24.31500000	     -9.26487054	     -4.33921373	      9.55608899	     -1.74359384	     -0.02357662	     -0.32004663	     32.49082493	      1.29862612	     -8.18004503	    -17.88327109	     -8.10556747	      3.13942931	     16.93979425	     -3.33039481	     -4.91580047	      9.11370146	    -23.58051360	     -0.99208002	     13.77046295	     27.39865026	      7.80914213	      1.57024140	     -9.03602524
     24.32000000	     -9.31552873	     -4.65381922	      9.39002238	     -1.73684696	     -0.02351603	     -0.31898384	     32.51251476	      1.91403858	     -7.49003499	    -18.43114038	     -8.29101495	      2.27232522	     16.48233912	     -2.98226555	     -5.45938661	      8.30887584	    -24.59685559	     -2.21225515	     14.81774292	     28.52748625	      8.14793700	      1.94706454	     -8.89147227
     24.32500000	     -9.32424923	     -4.92676575	      9.20795687	     -1.73016437	     -0.02336173	     -0.31792656	     32.47689742	      2.52186871	     -6.73733416	    -18.98609960	     -8.38558194	      1.34832023	     15.82579730	     -2.65126371	     -5.96464867	      7.52643983	    -25.64169372	     -3.64843111	     15.71351863	     29.80967266	      8.41626104	      2.29912047	     -8.72906565
     24.33000000	     -9.27544603	     -5.10285214	      9.06216436	     -1.72360926	     -0.02307340	     -0.31684478	     32.36973548	      3.04081216	     -5.97843423	    -19.58020999	     -8.29060615	      0.47502407	     14.85043610	     -2.36142091	     -6.38319923	      6.86640636	    -26.66388953	     -5.38694858	     16.52928300	     31.48064445	      8.57935797	      2.53850632	     -8.57060855
     24.33500000	     -9.25747220	     -5.33747189	      8.89376400	     -1.71694054	     -0.02282944	     -0.31581508	     32.25431268	      3.62125368	     -5.24464349	    -20.10302155	     -8.18236293	     -0.36461154	     14.04993630	     -1.98388360	     -6.85876102	      6.18299624	    -27.81319294	     -7.04760800	     17.32794671	     32.54255205	      8.80685724	      2.85238821	     -8.44153213
     24.34000000	     -9.17285436	     -5.49502829	      8.75083323	     -1.71029298	     -0.02247834	     -0.31481636	     32.03780830	      4.11404089	     -4.62580460	    -20.63613025	     -7.72098808	     -0.92704705	     12.95259740	     -1.67809629	     -7.26395369	      5.60894570	    -28.90489306	     -9.02062669	     18.01026533	     34.05088840	      8.94643433	      3.08569446	     -8.33406005
     24.34500000	     -9.15636753	     -5.66189746	      8.57130380	     -1.70371067	     -0.02220808	     -0.31380153	     31.86048052	      4.61681844	     -4.03022535	    -21.05841955	     -7.59801430	     -1.67934074	     12.55502865	     -1.22407862	     -7.65720732	      5.05853054	    -30.19887087	    -10.72745408	     18.76700144	     34.34149442	      9.14996273	      3.32888982	     -8.18349962
